<svg width="194" height="35" viewBox="0 0 194 35" fill="none" xmlns="http://www.w3.org/2000/svg">
<path d="M0.082 26.034C0.0366666 25.6713 0.0366666 25.3087 0.082 24.946C0.716667 24.878 1.22667 24.7987 1.612 24.708C1.99733 24.6173 2.326 24.4587 2.598 24.232C2.87 23.9827 3.13067 23.62 3.38 23.144C3.62933 22.6453 3.924 21.954 4.264 21.07L11.608 2.234C11.8573 2.14333 12.152 2.07533 12.492 2.03C12.8547 1.98467 13.1607 1.962 13.41 1.962L20.72 21.376C21.0373 22.192 21.298 22.838 21.502 23.314C21.706 23.7673 21.9327 24.096 22.182 24.3C22.4313 24.504 22.7487 24.6513 23.134 24.742C23.5193 24.81 24.052 24.878 24.732 24.946C24.7773 25.3087 24.7773 25.6713 24.732 26.034C23.9387 26.034 23.1227 26.0227 22.284 26C21.4453 25.9773 20.6067 25.966 19.768 25.966C18.9067 25.966 18.034 25.9773 17.15 26C16.2887 26.0227 15.4273 26.034 14.566 26.034C14.498 25.694 14.498 25.3313 14.566 24.946C15.6767 24.8327 16.4473 24.7307 16.878 24.64C17.3087 24.5267 17.524 24.2547 17.524 23.824C17.524 23.6427 17.49 23.4387 17.422 23.212C17.354 22.9853 17.2633 22.702 17.15 22.362L15.212 17.126H7.562L5.862 21.818C5.70333 22.2487 5.57867 22.6113 5.488 22.906C5.42 23.178 5.386 23.4273 5.386 23.654C5.386 24.1527 5.61267 24.47 6.066 24.606C6.542 24.7193 7.31267 24.8327 8.378 24.946C8.42333 25.3313 8.42333 25.694 8.378 26.034C7.60733 26.034 6.848 26.0227 6.1 26C5.352 25.9773 4.59267 25.966 3.822 25.966C3.18733 25.966 2.57533 25.9773 1.986 26C1.39667 26.0227 0.762 26.034 0.082 26.034ZM8.072 15.698H14.702L11.37 6.654L8.072 15.698ZM33.2902 26.034C32.6328 26.034 31.9642 26.0227 31.2842 26C30.6042 25.9773 29.8448 25.966 29.0062 25.966C28.1675 25.966 27.4195 25.9773 26.7622 26C26.1048 26.0227 25.4362 26.034 24.7562 26.034C24.6882 25.6713 24.6882 25.32 24.7562 24.98C25.5268 24.9347 26.0935 24.8667 26.4562 24.776C26.8188 24.6627 27.0568 24.436 27.1702 24.096C27.2835 23.756 27.3402 23.212 27.3402 22.464V5.43C27.3402 4.72733 27.2722 4.206 27.1362 3.866C27.0228 3.50333 26.7622 3.254 26.3542 3.118C25.9688 2.95933 25.3795 2.846 24.5862 2.778C24.5182 2.48333 24.5182 2.17733 24.5862 1.86C25.4928 1.74667 26.4222 1.57667 27.3742 1.35C28.3262 1.10067 29.3008 0.760665 30.2982 0.329998L30.8762 0.534C30.8535 1.03267 30.8308 1.59933 30.8082 2.234C30.8082 2.86867 30.8082 3.56 30.8082 4.308V22.124C30.8082 23.008 30.8535 23.6427 30.9442 24.028C31.0575 24.4133 31.2842 24.6627 31.6242 24.776C31.9868 24.8667 32.5422 24.9347 33.2902 24.98C33.3355 25.32 33.3355 25.6713 33.2902 26.034ZM43.2179 26.034C42.5606 26.034 41.8919 26.0227 41.2119 26C40.5319 25.9773 39.7726 25.966 38.9339 25.966C38.0952 25.966 37.3472 25.9773 36.6899 26C36.0326 26.0227 35.3639 26.034 34.6839 26.034C34.6159 25.6713 34.6159 25.32 34.6839 24.98C35.4546 24.9347 36.0212 24.8667 36.3839 24.776C36.7466 24.6627 36.9846 24.436 37.0979 24.096C37.2112 23.756 37.2679 23.212 37.2679 22.464V5.43C37.2679 4.72733 37.1999 4.206 37.0639 3.866C36.9506 3.50333 36.6899 3.254 36.2819 3.118C35.8966 2.95933 35.3072 2.846 34.5139 2.778C34.4459 2.48333 34.4459 2.17733 34.5139 1.86C35.4206 1.74667 36.3499 1.57667 37.3019 1.35C38.2539 1.10067 39.2286 0.760665 40.2259 0.329998L40.8039 0.534C40.7812 1.03267 40.7586 1.59933 40.7359 2.234C40.7359 2.86867 40.7359 3.56 40.7359 4.308V22.124C40.7359 23.008 40.7812 23.6427 40.8719 24.028C40.9852 24.4133 41.2119 24.6627 41.5519 24.776C41.9146 24.8667 42.4699 24.9347 43.2179 24.98C43.2632 25.32 43.2632 25.6713 43.2179 26.034ZM53.3496 26.034C52.715 26.034 52.0576 26.0227 51.3776 26C50.6976 25.9773 49.961 25.966 49.1676 25.966C48.4423 25.966 47.7056 25.9773 46.9576 26C46.2323 26.0227 45.5296 26.034 44.8496 26.034C44.7816 25.6713 44.7816 25.32 44.8496 24.98C45.6203 24.9347 46.187 24.8667 46.5496 24.776C46.9123 24.6627 47.1503 24.436 47.2636 24.096C47.377 23.756 47.4336 23.212 47.4336 22.464V14.848C47.4336 13.964 47.3996 13.3067 47.3316 12.876C47.2636 12.4453 47.0483 12.1507 46.6856 11.992C46.3456 11.8107 45.745 11.6633 44.8836 11.55C44.8156 11.2327 44.8156 10.938 44.8836 10.666C45.881 10.4847 46.833 10.258 47.7396 9.986C48.6463 9.714 49.519 9.41933 50.3576 9.102L50.9356 9.306C50.913 10.0087 50.8903 10.666 50.8676 11.278C50.8676 11.89 50.8676 12.468 50.8676 13.012V22.124C50.8676 23.008 50.913 23.6427 51.0036 24.028C51.117 24.4133 51.3436 24.6627 51.6836 24.776C52.0463 24.8667 52.6016 24.9347 53.3496 24.98C53.4176 25.32 53.4176 25.6713 53.3496 26.034ZM46.5496 3.322C46.5496 2.66467 46.7763 2.10933 47.2296 1.656C47.7056 1.20267 48.2723 0.975998 48.9296 0.975998C49.5643 0.975998 50.1083 1.20267 50.5616 1.656C51.0376 2.10933 51.2756 2.65333 51.2756 3.288C51.2756 3.87733 51.049 4.42133 50.5956 4.92C50.1423 5.396 49.5643 5.634 48.8616 5.634C48.227 5.634 47.683 5.40733 47.2296 4.954C46.7763 4.50067 46.5496 3.95666 46.5496 3.322ZM56.5406 20.628C56.8806 22.124 57.4246 23.2687 58.1726 24.062C58.9206 24.8327 59.8839 25.218 61.0626 25.218C61.9466 25.218 62.6946 25.014 63.3066 24.606C63.9186 24.1753 64.2246 23.5067 64.2246 22.6C64.2246 21.92 64.0546 21.376 63.7146 20.968C63.3973 20.56 62.9439 20.22 62.3546 19.948C61.7879 19.6533 61.1419 19.3587 60.4166 19.064C59.5779 18.724 58.7846 18.3613 58.0366 17.976C57.3113 17.568 56.7106 17.0693 56.2346 16.48C55.7813 15.868 55.5546 15.086 55.5546 14.134C55.5546 13.046 55.8379 12.1507 56.4046 11.448C56.9939 10.7227 57.7419 10.1787 58.6486 9.816C59.5779 9.45333 60.5639 9.272 61.6066 9.272C62.1279 9.272 62.6493 9.306 63.1706 9.374C63.6919 9.442 63.9753 9.476 64.0206 9.476C64.4739 9.544 64.8933 9.58933 65.2786 9.612C65.6639 9.612 65.8679 9.612 65.8906 9.612C65.9133 9.612 65.9586 9.612 66.0266 9.612C66.1173 9.612 66.2306 9.60067 66.3666 9.578C66.3666 10.3033 66.3779 11.04 66.4006 11.788C66.4233 12.536 66.4686 13.3293 66.5366 14.168C66.5139 14.168 66.4686 14.168 66.4006 14.168C66.1966 14.1907 66.0039 14.2133 65.8226 14.236C65.6639 14.236 65.5053 14.2247 65.3466 14.202C65.0519 12.9327 64.6099 12.0147 64.0206 11.448C63.4539 10.8587 62.6493 10.564 61.6066 10.564C60.6773 10.564 59.9293 10.768 59.3626 11.176C58.8186 11.584 58.5466 12.1507 58.5466 12.876C58.5466 13.4653 58.7279 13.9527 59.0906 14.338C59.4533 14.7007 59.8953 15.0067 60.4166 15.256C60.9379 15.5053 61.4366 15.7207 61.9126 15.902C62.7966 16.242 63.6353 16.6273 64.4286 17.058C65.2446 17.466 65.9019 17.9987 66.4006 18.656C66.9219 19.3133 67.1826 20.1973 67.1826 21.308C67.1826 22.4867 66.8766 23.4613 66.2646 24.232C65.6753 24.98 64.9159 25.5353 63.9866 25.898C63.0573 26.238 62.0826 26.408 61.0626 26.408C60.4733 26.408 59.8839 26.3627 59.2946 26.272C58.7279 26.1813 58.4219 26.136 58.3766 26.136C58.3313 26.136 58.1386 26.1133 57.7986 26.068C57.4813 26.0227 57.1186 25.9773 56.7106 25.932C56.3253 25.8867 55.9853 25.864 55.6906 25.864C55.6906 25.1613 55.6566 24.3793 55.5886 23.518C55.5433 22.6567 55.4866 21.7047 55.4186 20.662C55.4639 20.662 55.5206 20.662 55.5886 20.662C55.7926 20.6393 55.9626 20.628 56.0986 20.628C56.2573 20.6053 56.4046 20.6053 56.5406 20.628ZM78.0228 26.408C76.3681 26.408 74.9174 26.0567 73.6708 25.354C72.4468 24.6287 71.4948 23.6427 70.8148 22.396C70.1348 21.1267 69.7948 19.676 69.7948 18.044C69.7948 16.276 70.1461 14.7347 70.8488 13.42C71.5741 12.1053 72.5828 11.0853 73.8748 10.36C75.1668 9.63467 76.6514 9.272 78.3288 9.272C79.9834 9.272 81.4228 9.63467 82.6468 10.36C83.8708 11.0853 84.8228 12.0827 85.5028 13.352C86.1828 14.6213 86.5228 16.0607 86.5228 17.67C86.5228 19.3247 86.1601 20.8207 85.4348 22.158C84.7321 23.4727 83.7461 24.5153 82.4768 25.286C81.2074 26.034 79.7228 26.408 78.0228 26.408ZM73.6368 17.636C73.6368 19.948 74.0108 21.784 74.7588 23.144C75.5294 24.4813 76.6741 25.15 78.1928 25.15C79.6434 25.15 80.7541 24.5153 81.5248 23.246C82.2954 21.954 82.6808 20.2313 82.6808 18.078C82.6808 15.7887 82.2954 13.964 81.5248 12.604C80.7541 11.244 79.6321 10.564 78.1588 10.564C76.7081 10.564 75.5861 11.1873 74.7928 12.434C74.0221 13.6807 73.6368 15.4147 73.6368 17.636ZM99.4526 26.034C99.4072 25.6713 99.4072 25.32 99.4526 24.98C100.155 24.9347 100.677 24.8667 101.017 24.776C101.357 24.6627 101.583 24.436 101.697 24.096C101.81 23.756 101.867 23.212 101.867 22.464V15.596C101.867 14.236 101.651 13.2273 101.221 12.57C100.813 11.89 99.9852 11.55 98.7386 11.55C98.0812 11.55 97.4466 11.6747 96.8346 11.924C96.2226 12.1507 95.5539 12.5927 94.8286 13.25V22.124C94.8286 23.008 94.8739 23.6427 94.9646 24.028C95.0779 24.4133 95.3046 24.6627 95.6446 24.776C95.9846 24.8667 96.5172 24.9347 97.2426 24.98C97.2879 25.32 97.2879 25.6713 97.2426 26.034C96.6079 26.034 95.9392 26.0227 95.2366 26C94.5566 25.9773 93.8199 25.966 93.0266 25.966C92.3012 25.966 91.5872 25.9773 90.8846 26C90.1819 26.0227 89.4906 26.034 88.8106 26.034C88.7426 25.6713 88.7426 25.32 88.8106 24.98C89.5812 24.9347 90.1479 24.8667 90.5106 24.776C90.8732 24.6627 91.1112 24.436 91.2246 24.096C91.3379 23.756 91.3946 23.212 91.3946 22.464V14.848C91.3946 13.964 91.3492 13.3067 91.2586 12.876C91.1906 12.4453 90.9752 12.1507 90.6126 11.992C90.2726 11.8107 89.6832 11.6633 88.8446 11.55C88.7766 11.2327 88.7766 10.938 88.8446 10.666C90.7939 10.2807 92.5846 9.75933 94.2166 9.102L94.7946 9.306V11.856C95.8372 10.904 96.8572 10.2353 97.8546 9.85C98.8519 9.46467 99.8039 9.272 100.711 9.272C102.207 9.272 103.351 9.714 104.145 10.598C104.938 11.482 105.335 12.7513 105.335 14.406V22.124C105.335 23.008 105.38 23.6427 105.471 24.028C105.584 24.4133 105.811 24.6627 106.151 24.776C106.491 24.8667 107.035 24.9347 107.783 24.98C107.828 25.32 107.828 25.6713 107.783 26.034C107.103 26.034 106.434 26.0227 105.777 26C105.142 25.9773 104.394 25.966 103.533 25.966C102.694 25.966 101.957 25.9773 101.323 26C100.711 26.0227 100.087 26.034 99.4526 26.034ZM115.442 26.034C115.442 25.8753 115.453 25.694 115.476 25.49C115.498 25.286 115.544 25.1047 115.612 24.946C116.586 24.8553 117.289 24.7647 117.72 24.674C118.173 24.5607 118.49 24.3453 118.672 24.028C118.853 23.688 119.012 23.1327 119.148 22.362L122.276 6.246C122.366 5.838 122.434 5.498 122.48 5.226C122.525 4.93133 122.548 4.682 122.548 4.478C122.548 3.95667 122.344 3.65067 121.936 3.56C121.55 3.44667 120.768 3.34467 119.59 3.254C119.635 2.89133 119.703 2.52866 119.794 2.166C120.451 2.166 121.267 2.17733 122.242 2.2C123.216 2.22266 124.123 2.234 124.962 2.234C125.755 2.234 126.639 2.22266 127.614 2.2C128.611 2.17733 129.427 2.166 130.062 2.166C130.062 2.52866 129.994 2.88 129.858 3.22C128.883 3.288 128.158 3.37866 127.682 3.492C127.206 3.60533 126.866 3.832 126.662 4.172C126.458 4.48933 126.276 5.04467 126.118 5.838L122.48 24.572H127.376C128.622 24.572 129.62 24.3907 130.368 24.028C131.116 23.6653 131.762 23.11 132.306 22.362C132.85 21.614 133.439 20.662 134.074 19.506C134.504 19.4153 134.924 19.4153 135.332 19.506C134.833 20.866 134.402 22.1127 134.04 23.246C133.7 24.3567 133.416 25.2747 133.19 26C131.059 26 129.008 26 127.036 26C125.086 25.9773 123.046 25.966 120.916 25.966C119.941 25.966 118.944 25.9773 117.924 26C116.904 26.0227 116.076 26.034 115.442 26.034ZM140.769 26.374C140.066 26.374 139.397 26.1927 138.763 25.83C138.128 25.4447 137.618 24.8553 137.233 24.062C136.847 23.2687 136.655 22.2487 136.655 21.002C136.655 19.4607 136.949 18.01 137.539 16.65C138.128 15.29 138.899 14.0887 139.851 13.046C140.803 12.0033 141.845 11.1873 142.979 10.598C144.135 9.986 145.268 9.68 146.379 9.68C146.809 9.68 147.297 9.748 147.841 9.884C148.385 9.99733 148.951 10.2013 149.541 10.496C150.017 10.428 150.504 10.36 151.003 10.292C151.524 10.224 152.057 10.1447 152.601 10.054L152.703 10.19C152.431 11.142 152.193 12.0487 151.989 12.91C151.785 13.7487 151.581 14.61 151.377 15.494L149.813 22.226C149.79 22.3847 149.745 22.5887 149.677 22.838C149.609 23.0873 149.575 23.3253 149.575 23.552C149.575 23.756 149.62 23.926 149.711 24.062C149.801 24.198 149.96 24.266 150.187 24.266C150.572 24.266 151.059 24.062 151.649 23.654C152.238 23.246 152.771 22.7473 153.247 22.158C153.541 22.362 153.802 22.5887 154.029 22.838C153.258 23.858 152.431 24.708 151.547 25.388C150.663 26.068 149.665 26.408 148.555 26.408C147.716 26.408 147.115 26.204 146.753 25.796C146.39 25.3653 146.209 24.8327 146.209 24.198C146.209 23.586 146.333 22.8833 146.583 22.09H146.413C145.574 23.5407 144.667 24.6173 143.693 25.32C142.741 26.0227 141.766 26.374 140.769 26.374ZM148.657 12.638C148.181 12.2073 147.682 11.8673 147.161 11.618C146.639 11.346 146.107 11.21 145.563 11.21C144.724 11.21 143.976 11.516 143.319 12.128C142.661 12.74 142.106 13.5333 141.653 14.508C141.199 15.46 140.859 16.4913 140.633 17.602C140.406 18.69 140.293 19.7327 140.293 20.73C140.293 22.09 140.474 23.0193 140.837 23.518C141.199 23.994 141.63 24.232 142.129 24.232C142.718 24.232 143.364 23.9487 144.067 23.382C144.792 22.7927 145.495 21.8633 146.175 20.594C146.877 19.302 147.478 17.602 147.977 15.494L148.657 12.638ZM161.025 19.812L159.597 26H156.197L158.985 13.93C159.144 13.2727 159.223 12.842 159.223 12.638C159.223 12.094 159.019 11.822 158.611 11.822C158.294 11.822 157.875 12.0033 157.353 12.366C156.855 12.706 156.356 13.1367 155.857 13.658C155.699 13.5447 155.551 13.4313 155.415 13.318C155.302 13.2047 155.189 13.08 155.075 12.944C155.982 11.8787 156.911 11.0853 157.863 10.564C158.838 10.02 159.745 9.748 160.583 9.748C161.354 9.748 161.898 9.94067 162.215 10.326C162.533 10.7113 162.691 11.1647 162.691 11.686C162.691 11.958 162.646 12.2867 162.555 12.672C162.487 13.0347 162.419 13.42 162.351 13.828H162.453C163.315 12.4453 164.323 11.414 165.479 10.734C166.658 10.0313 167.791 9.68 168.879 9.68C169.967 9.68 170.795 9.986 171.361 10.598C171.951 11.1873 172.245 11.9127 172.245 12.774C172.245 13.25 172.155 13.8847 171.973 14.678C171.815 15.4713 171.611 16.3213 171.361 17.228C171.112 18.1347 170.863 19.03 170.613 19.914C170.364 20.7753 170.149 21.546 169.967 22.226C169.809 22.8833 169.729 23.348 169.729 23.62C169.729 23.7787 169.775 23.926 169.865 24.062C169.956 24.198 170.115 24.266 170.341 24.266C170.727 24.266 171.214 24.062 171.803 23.654C172.393 23.246 172.925 22.7473 173.401 22.158C173.696 22.362 173.957 22.5887 174.183 22.838C173.413 23.858 172.574 24.708 171.667 25.388C170.783 26.068 169.797 26.408 168.709 26.408C167.871 26.408 167.259 26.204 166.873 25.796C166.488 25.3653 166.295 24.8327 166.295 24.198C166.295 23.7447 166.375 23.144 166.533 22.396C166.715 21.648 166.93 20.832 167.179 19.948C167.429 19.064 167.667 18.1913 167.893 17.33C168.143 16.446 168.347 15.6413 168.505 14.916C168.687 14.1907 168.777 13.624 168.777 13.216C168.777 12.7627 168.675 12.3887 168.471 12.094C168.267 11.7993 167.905 11.652 167.383 11.652C166.726 11.652 165.989 11.9353 165.173 12.502C164.357 13.0687 163.575 13.93 162.827 15.086C162.102 16.242 161.524 17.7267 161.093 19.54L161.025 19.812ZM180.464 34.67C179.421 34.67 178.379 34.5227 177.336 34.228C176.316 33.9333 175.466 33.4687 174.786 32.834C174.106 32.222 173.766 31.44 173.766 30.488C173.766 29.4227 174.174 28.5273 174.99 27.802C175.829 27.0767 176.803 26.4307 177.914 25.864C177.415 25.6373 177.007 25.354 176.69 25.014C176.395 24.6513 176.248 24.2093 176.248 23.688C176.248 23.0533 176.497 22.464 176.996 21.92C177.495 21.376 178.288 20.7867 179.376 20.152C178.628 19.744 178.027 19.1887 177.574 18.486C177.121 17.7833 176.894 16.9673 176.894 16.038C176.894 14.882 177.234 13.828 177.914 12.876C178.617 11.9013 179.546 11.1307 180.702 10.564C181.858 9.97467 183.127 9.68 184.51 9.68C186.527 9.68 188.091 10.2807 189.202 11.482C189.837 11.1193 190.313 10.7113 190.63 10.258C190.199 9.80467 189.984 9.272 189.984 8.66C189.984 8.20667 190.12 7.82133 190.392 7.504C190.687 7.164 191.083 6.994 191.582 6.994C191.99 6.994 192.341 7.13 192.636 7.402C192.953 7.65133 193.112 8.03667 193.112 8.558C193.112 9.26067 192.806 9.90667 192.194 10.496C191.605 11.0853 190.811 11.686 189.814 12.298C190.222 13.0233 190.426 13.8393 190.426 14.746C190.426 15.9247 190.097 16.99 189.44 17.942C188.783 18.894 187.899 19.6533 186.788 20.22C185.677 20.764 184.431 21.036 183.048 21.036C182.119 21.036 181.257 20.9 180.464 20.628C180.011 20.9227 179.648 21.2287 179.376 21.546C179.127 21.8407 179.002 22.124 179.002 22.396C179.002 22.8267 179.274 23.1553 179.818 23.382C180.385 23.6087 181.099 23.79 181.96 23.926C182.821 24.062 183.739 24.2207 184.714 24.402C185.689 24.5607 186.607 24.7987 187.468 25.116C188.329 25.4107 189.032 25.83 189.576 26.374C190.143 26.918 190.426 27.6433 190.426 28.55C190.426 29.5247 190.097 30.3973 189.44 31.168C188.805 31.9387 187.978 32.5733 186.958 33.072C185.938 33.5933 184.85 33.99 183.694 34.262C182.561 34.534 181.484 34.67 180.464 34.67ZM179.206 26.306C178.435 26.8273 177.846 27.3827 177.438 27.972C177.03 28.584 176.826 29.2527 176.826 29.978C176.826 30.7713 177.053 31.4173 177.506 31.916C177.959 32.4147 178.537 32.7773 179.24 33.004C179.943 33.2307 180.668 33.344 181.416 33.344C182.3 33.344 183.207 33.1967 184.136 32.902C185.065 32.63 185.847 32.222 186.482 31.678C187.117 31.1567 187.434 30.522 187.434 29.774C187.434 29.094 187.162 28.5727 186.618 28.21C186.097 27.8473 185.405 27.564 184.544 27.36C183.705 27.156 182.81 26.986 181.858 26.85C180.929 26.714 180.045 26.5327 179.206 26.306ZM183.048 19.846C183.773 19.846 184.385 19.6647 184.884 19.302C185.405 18.9393 185.825 18.4747 186.142 17.908C186.459 17.3413 186.686 16.7407 186.822 16.106C186.981 15.4713 187.06 14.882 187.06 14.338C187.06 13.8393 186.981 13.318 186.822 12.774C186.686 12.2073 186.414 11.7313 186.006 11.346C185.598 10.9607 184.997 10.768 184.204 10.768C183.479 10.768 182.855 10.9493 182.334 11.312C181.835 11.6747 181.427 12.1393 181.11 12.706C180.815 13.2727 180.6 13.8733 180.464 14.508C180.328 15.12 180.26 15.698 180.26 16.242C180.26 16.786 180.339 17.3413 180.498 17.908C180.657 18.452 180.94 18.9167 181.348 19.302C181.756 19.6647 182.323 19.846 183.048 19.846Z" fill="black"/>
</svg>
